{"title":"Junkyard Dog.2010.DvDRip.H264.Feel-Free","uid":5928544,"size":816470866,"categoryP":"video","categoryS":"movies","magnet":"?xt=urn:btih:2a9c5cfa770dce443c06480fafc55be72eedcf35&amp;dn=Junkyard+Dog.2010.DvDRip.H264.Feel-Free&amp;tr=udp%3A%2F%2Ftracker.openbittorrent.com%3A80&amp;tr=udp%3A%2F%2Fopen.demonii.com%3A1337&amp;tr=udp%3A%2F%2Ftracker.coppersurfer.tk%3A6969&amp;tr=udp%3A%2F%2Fexodus.desync.com%3A6969","seeders":1,"leechers":0,"uploader":"neon","files":-1,"time":1288688863,"description":"Plot:\nA gritty psychological-horror-thriller that delves the demented mind of a cannibalistic serial rapist who kidnaps his tenth victim in as many months on Halloween night.\n\nTRAILER: http://www.imdb.com/video/wab/vi1236599577/\n\n\nGenre:Thriller\nLanguage:English\n &lt;a href=&quot; http://www.imdb.com/title/tt1229405/&quot; rel=&quot;nofollow&quot; target=&quot;_NEW&quot;&gt; http://www.imdb.com/title/tt1229405/&lt;/a&gt;\nSource:DvD\n\nGeneral\nComplete name :Junkyard.Dog.2010.DvDRip.H264.Feel-Free\nFormat : MPEG-4\nFormat profile : Base Media / Version 2\nCodec ID : mp42\nFile size : 777 MiB\nDuration : 1h 31mn\nOverall bit rate : 1 188 Kbps\nVideo #1\nCodec ID : avc1\nCodec ID/Info : Advanced Video Coding\nDuration : 1h 31mn\nBit rate mode : Variable\nBit rate : 706 Kbps\nWidth : 720 pixels\nHeight : 384 pixels\nDisplay aspect ratio : 1.875\nFrame rate mode : Constant\nFrame rate : 23.976 fps\nResolution : 24 bits\nColorimetry : 4:2:0\nScan type : Progressive\nBits/(Pixel*Frame) : 0.107\nStream size : 462 MiB (59%)\nAudio #2\nID : 2\nFormat : AAC\nFormat/Info : Advanced Audio Codec\nFormat version : Version 4\nFormat profile : LC\nFormat settings, SBR : No\nCodec ID : 40\nDuration : 1h 31mn\nBit rate mode : Constant\nBit rate : 477 Kbps\nNominal bit rate : 480 Kbps\nChannel(s) : 6 channels\nChannel positions : Front: L C R, Rear: L R, LFE\nSampling rate : 48.0 KHz\nResolution : 16 bits\nStream size : 312 MiB (40%)\n &lt;a href=&quot;\nhttp://rapidhdd.com/images/222597vlcsnap-2010-11-02-08h14m28s81.png&quot; rel=&quot;nofollow&quot; target=&quot;_NEW&quot;&gt;\nhttp://rapidhdd.com/images/222597vlcsnap-2010-11-02-08h14m28s81.png&lt;/a&gt; &lt;a href=&quot;\nhttp://www.rapidhdd.com/images/672062vlcsnap-2010-11-02-08h15m18s49.png&quot; rel=&quot;nofollow&quot; target=&quot;_NEW&quot;&gt;\nhttp://www.rapidhdd.com/images/672062vlcsnap-2010-11-02-08h15m18s49.png&lt;/a&gt; &lt;a href=&quot;\nhttp://www.rapidhdd.com/images/421987vlcsnap-2010-11-02-08h14m47s12.png&quot; rel=&quot;nofollow&quot; target=&quot;_NEW&quot;&gt;\nhttp://www.rapidhdd.com/images/421987vlcsnap-2010-11-02-08h14m47s12.png&lt;/a&gt;","torrent":{"xt":"urn:btih:2a9c5cfa770dce443c06480fafc55be72eedcf35","amp;dn":"Junkyard+Dog.2010.DvDRip.H264.Feel-Free","amp;tr":["udp%3A%2F%2Ftracker.openbittorrent.com%3A80","udp%3A%2F%2Fopen.demonii.com%3A1337","udp%3A%2F%2Ftracker.coppersurfer.tk%3A6969","udp%3A%2F%2Fexodus.desync.com%3A6969"],"infoHash":"2a9c5cfa770dce443c06480fafc55be72eedcf35","infoHashBuffer":{"type":"Buffer","data":[42,156,92,250,119,13,206,68,60,6,72,15,175,197,91,231,46,237,207,53]},"announce":[],"urlList":[]}}